<svg xmlns="http://www.w3.org/2000/svg" viewBox="0 0 960 600" role="img" aria-labelledby="title desc">
  <title id="title">Fictional hospital account record</title><desc id="desc">A training hospital record showing a fictional outpatient encounter, authorization, payer, attending provider and revenue code lines.</desc>
  <rect width="960" height="600" rx="24" fill="#eef5f7"/><rect x="28" y="28" width="904" height="544" rx="18" fill="white" stroke="#c5d9e2" stroke-width="2"/>
  <rect x="28" y="28" width="904" height="88" rx="18" fill="#0d8391"/><rect x="28" y="92" width="904" height="24" fill="#0d8391"/>
  <text x="64" y="73" fill="white" font-family="Arial" font-size="31" font-weight="700">Riverside Community Hospital</text><text x="64" y="99" fill="#d8f4f2" font-family="Arial" font-size="16">FICTIONAL OUTPATIENT ACCOUNT</text>
  <g font-family="Arial"><g fill="#4d697a" font-size="15" font-weight="700"><text x="62" y="158">PATIENT</text><text x="310" y="158">SERVICE DATE</text><text x="550" y="158">STATUS</text><text x="745" y="158">TYPE OF BILL</text></g><g fill="#12354d" font-size="22"><text x="62" y="188">Maria Santos</text><text x="310" y="188">09/10/2026</text><text x="550" y="188">Outpatient</text><text x="745" y="188">0131</text></g>
  <line x1="62" x2="898" y1="216" y2="216" stroke="#d9e6ec"/><g fill="#4d697a" font-size="15" font-weight="700"><text x="62" y="254">PAYER</text><text x="310" y="254">AUTHORIZATION</text><text x="550" y="254">ATTENDING</text></g><g fill="#12354d" font-size="21"><text x="62" y="284">SummitCare PPO</text><text x="310" y="284">AU-883920</text><text x="550" y="284">Dr. Alan Chen</text></g>
  <rect x="62" y="328" width="836" height="174" rx="13" fill="#f4f8fa"/><g fill="#557080" font-size="15" font-weight="700"><text x="84" y="363">REV</text><text x="170" y="363">DESCRIPTION</text><text x="520" y="363">HCPCS / MOD</text><text x="746" y="363">CHARGE</text></g><line x1="84" x2="876" y1="378" y2="378" stroke="#c9dce4"/>
  <g fill="#12354d" font-size="19"><text x="84" y="411">0450</text><text x="170" y="411">Emergency room</text><text x="520" y="411">99284 / 25</text><text x="746" y="411">$1,450</text><text x="84" y="451">0300</text><text x="170" y="451">Laboratory</text><text x="520" y="451">80053 / —</text><text x="746" y="451">$180</text><text x="84" y="491">0320</text><text x="170" y="491">Diagnostic radiology</text><text x="520" y="491">71046 / TC</text><text x="746" y="491">$320</text></g>
  <text x="62" y="548" fill="#6a8290" font-size="15">Training illustration only • Contains no real patient information</text></g>
</svg>
